<mxfile host="app.diagrams.net" modified="2024-02-27T18:34:23.746Z" agent="Mozilla/5.0 (Windows NT 10.0; Win64; x64) AppleWebKit/537.36 (KHTML, like Gecko) Chrome/121.0.0.0 Safari/537.36" etag="s5n0bLTJZN4N004-BB9l" version="23.1.7" type="github">
  <diagram name="Page-1" id="SCsTlHc8ZbP4TBymXfw1">
    <mxGraphModel dx="926" dy="493" grid="1" gridSize="10" guides="1" tooltips="1" connect="1" arrows="1" fold="1" page="1" pageScale="1" pageWidth="850" pageHeight="1100" math="0" shadow="0">
      <root>
        <mxCell id="0" />
        <mxCell id="1" parent="0" />
        <mxCell id="StgJ1e9NS6PaPS7kK_Qx-1" value="" style="rounded=0;whiteSpace=wrap;html=1;" parent="1" vertex="1">
          <mxGeometry x="180" y="440" width="160" height="160" as="geometry" />
        </mxCell>
        <mxCell id="StgJ1e9NS6PaPS7kK_Qx-3" value="" style="rounded=0;whiteSpace=wrap;html=1;" parent="1" vertex="1">
          <mxGeometry x="190" y="480" width="140" height="110" as="geometry" />
        </mxCell>
        <mxCell id="StgJ1e9NS6PaPS7kK_Qx-4" value="todo&amp;nbsp; &amp;nbsp; &amp;nbsp; &amp;nbsp; edit&amp;nbsp; &amp;nbsp; delete" style="rounded=1;whiteSpace=wrap;html=1;" parent="1" vertex="1">
          <mxGeometry x="200" y="490" width="120" height="20" as="geometry" />
        </mxCell>
        <mxCell id="X3XGAT0AVOaRNxp9IKyi-4" value="" style="rounded=1;whiteSpace=wrap;html=1;" vertex="1" parent="1">
          <mxGeometry x="200" y="450" width="120" height="20" as="geometry" />
        </mxCell>
        <mxCell id="X3XGAT0AVOaRNxp9IKyi-5" value="&lt;h5&gt;&lt;font style=&quot;font-weight: normal;&quot; face=&quot;Helvetica&quot;&gt;submit&lt;/font&gt;&lt;/h5&gt;" style="rounded=0;whiteSpace=wrap;html=1;" vertex="1" parent="1">
          <mxGeometry x="280" y="450" width="40" height="20" as="geometry" />
        </mxCell>
        <mxCell id="X3XGAT0AVOaRNxp9IKyi-6" value="front edend" style="rounded=0;whiteSpace=wrap;html=1;" vertex="1" parent="1">
          <mxGeometry x="220" y="362.5" width="80" height="30" as="geometry" />
        </mxCell>
        <mxCell id="X3XGAT0AVOaRNxp9IKyi-8" value="https" style="rounded=0;whiteSpace=wrap;html=1;" vertex="1" parent="1">
          <mxGeometry x="360" y="362.5" width="80" height="30" as="geometry" />
        </mxCell>
        <mxCell id="X3XGAT0AVOaRNxp9IKyi-15" value="&lt;font style=&quot;font-size: 8px;&quot;&gt;edit&lt;/font&gt;" style="rounded=0;whiteSpace=wrap;html=1;fillColor=#f8cecc;strokeColor=#b85450;" vertex="1" parent="1">
          <mxGeometry x="280" y="521.75" width="20" height="17.75" as="geometry" />
        </mxCell>
        <mxCell id="X3XGAT0AVOaRNxp9IKyi-18" value="&lt;font style=&quot;font-size: 6px;&quot;&gt;need to eat my homework&lt;/font&gt;" style="text;html=1;align=center;verticalAlign=middle;whiteSpace=wrap;rounded=0;" vertex="1" parent="1">
          <mxGeometry x="200" y="516" width="80" height="30" as="geometry" />
        </mxCell>
        <mxCell id="X3XGAT0AVOaRNxp9IKyi-19" value="&lt;font style=&quot;font-size: 8px;&quot;&gt;del&lt;/font&gt;" style="rounded=0;whiteSpace=wrap;html=1;fillColor=#f8cecc;strokeColor=#b85450;" vertex="1" parent="1">
          <mxGeometry x="300" y="521.75" width="20" height="17.75" as="geometry" />
        </mxCell>
        <mxCell id="X3XGAT0AVOaRNxp9IKyi-20" value="" style="rounded=0;whiteSpace=wrap;html=1;" vertex="1" parent="1">
          <mxGeometry x="480" y="386" width="180" height="334" as="geometry" />
        </mxCell>
        <mxCell id="X3XGAT0AVOaRNxp9IKyi-21" value="the server" style="rounded=0;whiteSpace=wrap;html=1;" vertex="1" parent="1">
          <mxGeometry x="520" y="392.5" width="100" height="25" as="geometry" />
        </mxCell>
        <mxCell id="X3XGAT0AVOaRNxp9IKyi-22" value="Create todo" style="rounded=0;whiteSpace=wrap;html=1;" vertex="1" parent="1">
          <mxGeometry x="510" y="430" width="120" height="60" as="geometry" />
        </mxCell>
        <mxCell id="X3XGAT0AVOaRNxp9IKyi-23" value="Update todo" style="rounded=0;whiteSpace=wrap;html=1;" vertex="1" parent="1">
          <mxGeometry x="510" y="500.63" width="120" height="60" as="geometry" />
        </mxCell>
        <mxCell id="X3XGAT0AVOaRNxp9IKyi-24" value="Delete todo" style="rounded=0;whiteSpace=wrap;html=1;" vertex="1" parent="1">
          <mxGeometry x="510" y="570" width="120" height="60" as="geometry" />
        </mxCell>
        <mxCell id="X3XGAT0AVOaRNxp9IKyi-25" value="Read all todo" style="rounded=0;whiteSpace=wrap;html=1;" vertex="1" parent="1">
          <mxGeometry x="510" y="640" width="120" height="60" as="geometry" />
        </mxCell>
        <mxCell id="X3XGAT0AVOaRNxp9IKyi-28" value="" style="curved=1;endArrow=classic;html=1;rounded=0;" edge="1" parent="1" source="X3XGAT0AVOaRNxp9IKyi-25">
          <mxGeometry width="50" height="50" relative="1" as="geometry">
            <mxPoint x="470" y="633.3000000000001" as="sourcePoint" />
            <mxPoint x="320" y="570.3125" as="targetPoint" />
            <Array as="points">
              <mxPoint x="440" y="660" />
              <mxPoint x="410" y="590" />
            </Array>
          </mxGeometry>
        </mxCell>
        <mxCell id="X3XGAT0AVOaRNxp9IKyi-29" value="" style="curved=1;endArrow=classic;html=1;rounded=0;entryX=0;entryY=0.25;entryDx=0;entryDy=0;" edge="1" parent="1" source="StgJ1e9NS6PaPS7kK_Qx-3" target="X3XGAT0AVOaRNxp9IKyi-25">
          <mxGeometry width="50" height="50" relative="1" as="geometry">
            <mxPoint x="520" y="675" as="sourcePoint" />
            <mxPoint x="330" y="580.3125" as="targetPoint" />
            <Array as="points">
              <mxPoint x="400" y="580" />
            </Array>
          </mxGeometry>
        </mxCell>
        <mxCell id="X3XGAT0AVOaRNxp9IKyi-30" value="" style="curved=1;endArrow=classic;html=1;rounded=0;entryX=0;entryY=0.25;entryDx=0;entryDy=0;exitX=1;exitY=0.75;exitDx=0;exitDy=0;" edge="1" parent="1" source="StgJ1e9NS6PaPS7kK_Qx-4">
          <mxGeometry width="50" height="50" relative="1" as="geometry">
            <mxPoint x="340" y="500.63" as="sourcePoint" />
            <mxPoint x="520" y="597.63" as="targetPoint" />
            <Array as="points">
              <mxPoint x="410" y="522.63" />
            </Array>
          </mxGeometry>
        </mxCell>
        <mxCell id="X3XGAT0AVOaRNxp9IKyi-31" value="" style="curved=1;endArrow=classic;html=1;rounded=0;entryX=1;entryY=0.25;entryDx=0;entryDy=0;" edge="1" parent="1" target="X3XGAT0AVOaRNxp9IKyi-5">
          <mxGeometry width="50" height="50" relative="1" as="geometry">
            <mxPoint x="510" y="480" as="sourcePoint" />
            <mxPoint x="310" y="382.37" as="targetPoint" />
            <Array as="points">
              <mxPoint x="410" y="412.37" />
            </Array>
          </mxGeometry>
        </mxCell>
        <mxCell id="X3XGAT0AVOaRNxp9IKyi-32" value="" style="curved=1;endArrow=classic;html=1;rounded=0;entryX=0.542;entryY=0.025;entryDx=0;entryDy=0;entryPerimeter=0;" edge="1" parent="1" target="StgJ1e9NS6PaPS7kK_Qx-4">
          <mxGeometry width="50" height="50" relative="1" as="geometry">
            <mxPoint x="525" y="550" as="sourcePoint" />
            <mxPoint x="325" y="473.37" as="targetPoint" />
            <Array as="points">
              <mxPoint x="425" y="482.37" />
            </Array>
          </mxGeometry>
        </mxCell>
        <mxCell id="X3XGAT0AVOaRNxp9IKyi-33" value="" style="curved=1;endArrow=classic;html=1;rounded=0;entryX=0;entryY=0.25;entryDx=0;entryDy=0;exitX=0.5;exitY=0;exitDx=0;exitDy=0;" edge="1" parent="1" source="StgJ1e9NS6PaPS7kK_Qx-4">
          <mxGeometry width="50" height="50" relative="1" as="geometry">
            <mxPoint x="325" y="468.37" as="sourcePoint" />
            <mxPoint x="525" y="540" as="targetPoint" />
            <Array as="points">
              <mxPoint x="415" y="465" />
            </Array>
          </mxGeometry>
        </mxCell>
        <mxCell id="X3XGAT0AVOaRNxp9IKyi-34" value="" style="curved=1;endArrow=classic;html=1;rounded=0;entryX=0;entryY=0.25;entryDx=0;entryDy=0;exitX=1;exitY=0.75;exitDx=0;exitDy=0;" edge="1" parent="1" source="X3XGAT0AVOaRNxp9IKyi-5">
          <mxGeometry width="50" height="50" relative="1" as="geometry">
            <mxPoint x="320" y="387.37" as="sourcePoint" />
            <mxPoint x="520" y="480" as="targetPoint" />
            <Array as="points">
              <mxPoint x="410" y="405" />
            </Array>
          </mxGeometry>
        </mxCell>
        <mxCell id="X3XGAT0AVOaRNxp9IKyi-35" value="" style="curved=1;endArrow=classic;html=1;rounded=0;entryX=1;entryY=1;entryDx=0;entryDy=0;" edge="1" parent="1">
          <mxGeometry width="50" height="50" relative="1" as="geometry">
            <mxPoint x="530" y="617.63" as="sourcePoint" />
            <mxPoint x="330" y="520" as="targetPoint" />
            <Array as="points">
              <mxPoint x="430" y="550" />
            </Array>
          </mxGeometry>
        </mxCell>
        <mxCell id="X3XGAT0AVOaRNxp9IKyi-36" value="POST" style="rounded=0;whiteSpace=wrap;html=1;" vertex="1" parent="1">
          <mxGeometry x="375" y="410" width="50" height="20" as="geometry" />
        </mxCell>
        <mxCell id="X3XGAT0AVOaRNxp9IKyi-38" value="PUT" style="rounded=0;whiteSpace=wrap;html=1;" vertex="1" parent="1">
          <mxGeometry x="420" y="470" width="50" height="20" as="geometry" />
        </mxCell>
        <mxCell id="X3XGAT0AVOaRNxp9IKyi-40" value="DEL" style="rounded=0;whiteSpace=wrap;html=1;" vertex="1" parent="1">
          <mxGeometry x="410" y="521.75" width="50" height="20" as="geometry" />
        </mxCell>
        <mxCell id="X3XGAT0AVOaRNxp9IKyi-41" value="GET" style="rounded=0;whiteSpace=wrap;html=1;" vertex="1" parent="1">
          <mxGeometry x="360" y="600" width="50" height="20" as="geometry" />
        </mxCell>
        <mxCell id="X3XGAT0AVOaRNxp9IKyi-42" value="" style="shape=cylinder3;whiteSpace=wrap;html=1;boundedLbl=1;backgroundOutline=1;size=15;" vertex="1" parent="1">
          <mxGeometry x="455" y="770" width="230" height="170" as="geometry" />
        </mxCell>
        <mxCell id="X3XGAT0AVOaRNxp9IKyi-43" value="Database&lt;br&gt;(postgres)" style="rounded=0;whiteSpace=wrap;html=1;" vertex="1" parent="1">
          <mxGeometry x="510" y="825" width="120" height="60" as="geometry" />
        </mxCell>
        <mxCell id="X3XGAT0AVOaRNxp9IKyi-44" value="" style="endArrow=classic;startArrow=classic;html=1;rounded=0;" edge="1" parent="1" source="X3XGAT0AVOaRNxp9IKyi-42" target="X3XGAT0AVOaRNxp9IKyi-20">
          <mxGeometry width="50" height="50" relative="1" as="geometry">
            <mxPoint x="540" y="790" as="sourcePoint" />
            <mxPoint x="590" y="740" as="targetPoint" />
          </mxGeometry>
        </mxCell>
      </root>
    </mxGraphModel>
  </diagram>
</mxfile>
